<?xml version="1.0" standalone="no"?>
<!DOCTYPE svg PUBLIC "-//W3C//DTD SVG 20010904//EN"
 "http://www.w3.org/TR/2001/REC-SVG-20010904/DTD/svg10.dtd">
<svg version="1.0" xmlns="http://www.w3.org/2000/svg"
 width="410.000000pt" height="410.000000pt" viewBox="0 0 410.000000 410.000000"
 preserveAspectRatio="xMidYMid meet">

<g transform="translate(0.000000,410.000000) scale(0.100000,-0.100000)"
fill="#000000" stroke="none">
<path d="M1017 2794 c-4 -4 -7 -349 -7 -766 l0 -758 778 0 c463 0 805 4 847
10 68 10 185 37 193 44 2 2 -39 64 -91 137 l-95 134 21 30 c61 86 257 348 257
343 0 -3 20 -90 44 -194 24 -104 47 -215 51 -247 6 -47 10 -55 21 -46 23 19
54 118 61 194 18 217 -89 374 -295 436 l-43 13 58 26 c121 55 183 140 191 266
9 146 -48 244 -181 308 -142 69 -133 69 -1012 73 -435 3 -794 1 -798 -3z
m1359 -366 c37 -20 44 -35 44 -92 0 -56 -28 -83 -101 -96 -32 -6 -194 -9 -390
-8 l-334 3 -3 94 c-1 52 0 101 3 108 4 12 68 14 377 11 330 -3 377 -5 404 -20z
m33 -552 c51 -18 76 -57 75 -117 0 -40 -6 -55 -29 -79 -16 -17 -46 -35 -66
-40 -22 -6 -187 -9 -415 -8 l-378 3 -2 120 c-1 66 0 123 3 128 8 13 774 7 812
-7z"/>
</g>
</svg>
